<svg width="1741" height="407" viewBox="0 0 1741 407" fill="none" xmlns="http://www.w3.org/2000/svg">
<path d="M437.792 214.523C434.224 211.708 429.544 210.213 423.728 210.213H386.009V243.392H423.728C429.544 243.392 434.224 241.897 437.792 239.083C441.36 236.268 443.038 232.34 443.038 226.896C443.038 221.463 441.36 217.339 437.792 214.523ZM442.286 188.273C447.73 190.347 452.596 193.149 456.534 196.707C460.473 200.46 463.66 204.967 466.104 210.028C468.352 215.079 469.474 220.709 469.474 226.896C469.474 233.081 468.352 238.515 466.104 243.577C463.66 248.64 460.473 253.147 456.534 256.703C452.596 260.456 447.73 263.271 442.286 265.333C436.668 267.395 430.666 268.519 424.1 268.519H358.636V135.401H458.041V161.281H386.009V185.284H424.1C430.666 185.284 436.668 186.211 442.286 188.273" fill="#002E6C"/>
<path d="M520.236 268.516H494.042V135.409H520.236V191.837L566.793 135.409H599.345L546.242 199.333L610.444 268.516H576.246L520.236 208.148V268.516" fill="#002E6C"/>
<path d="M650.63 265.331C642.196 261.763 634.885 256.885 628.7 250.711C622.515 244.525 617.636 237.4 614.08 228.956C610.512 220.521 608.82 211.521 608.82 201.964C608.82 192.407 610.512 183.405 614.08 174.972C617.636 166.527 622.515 159.218 628.7 153.031C634.885 146.844 642.196 141.979 650.63 138.411C659.074 134.843 668.445 133.163 678.57 133.163C686.065 133.163 693.376 134.287 700.314 136.535C707.254 138.967 713.625 142.164 719.429 146.288C725.06 150.598 729.936 155.475 734.06 161.279C738.185 167.095 741.185 173.651 743.061 180.776H713.625C712.316 177.404 710.44 174.404 707.996 171.775C705.563 169.156 702.748 166.91 699.563 165.032C696.376 163.342 693.19 161.847 689.622 160.908C686.065 159.969 682.312 159.403 678.57 159.403C672.188 159.403 666.372 160.538 661.321 162.588C656.073 164.847 651.568 167.836 647.813 171.775C644.072 175.713 641.257 180.22 639.194 185.281C637.133 190.344 636.196 195.963 636.196 201.964C636.196 207.964 637.133 213.583 639.194 218.645C641.257 223.708 644.072 228.215 647.813 232.154C651.568 236.092 656.073 239.08 661.321 241.143C666.372 243.389 672.188 244.525 678.57 244.525C682.312 244.525 686.065 243.957 689.622 243.019C693.19 242.081 696.376 240.587 699.563 238.709C702.748 237.019 705.563 234.771 707.996 232.154C710.44 229.523 712.316 226.523 713.625 223.152H743.061C741.185 230.276 738.185 236.648 734.06 242.452C729.936 248.267 725.06 253.33 719.429 257.454C713.625 261.763 707.254 264.96 700.314 267.208C693.376 269.64 686.065 270.764 678.57 270.764C668.445 270.764 659.074 268.899 650.63 265.331Z" fill="#002E6C"/>
<path d="M774.248 134.675H784.251L799.332 166.168L813.556 134.675H823.323L804.333 175.075C798.943 186.875 796.363 190.157 785.345 190.157H779.719V181.717H785.345C790.503 181.717 792.612 180.467 794.331 175.075L774.248 134.675" fill="#002E6C"/>
<path d="M1320.12 142.872H1291.3V158.135H1315.78V166.192H1291.3V181.455H1320.12V189.667H1282.16V134.66H1320.12V142.872Z" fill="#002E6C"/>
<path d="M1220.03 189.712V134.663H1229.18V174.205L1260.11 134.663H1268.02V189.712H1258.95V150.092L1227.94 189.712H1220.03" fill="#002E6C"/>
<path d="M948.414 167.219H966.099L957.256 146.896L948.414 167.219ZM953.378 134.641H961.291L985.335 189.712H975.871L969.588 175.285H944.924L938.719 189.712H929.333L953.378 134.641Z" fill="#002E6C"/>
<path d="M1056.23 134.66H1095.59V189.671H1086.44V143.337H1065.37V173.477C1065.37 185.331 1059.87 190.601 1051.66 190.601C1049.72 190.601 1048.09 190.523 1046.93 190.289V181.845C1047.94 182 1049.1 182.077 1050.49 182.077C1054.21 182.077 1056.23 180.14 1056.23 172.237V134.66" fill="#002E6C"/>
<path d="M1160.16 134.663H1169.23V157.459H1196.44V134.663H1205.51V189.712H1196.44V166.063H1169.23V189.712H1160.16V134.663Z" fill="#002E6C"/>
<path d="M1019.25 181.415C1025.14 181.415 1028.4 178.159 1028.4 173.507C1028.4 168.931 1025.14 165.597 1019.25 165.597H1007.15V181.415H1019.25ZM1016.61 157.844C1021.57 157.844 1024.6 154.665 1024.6 150.4C1024.6 146.368 1021.57 142.957 1016.61 142.957H1007.15V157.844H1016.61ZM998.079 134.66H1017.08C1026.92 134.66 1033.51 141.561 1033.51 149.857C1033.51 154.819 1031.42 158.231 1028.4 160.48C1033.43 162.573 1037.23 166.76 1037.23 173.584C1037.23 182.656 1029.95 189.712 1019.48 189.712H998.079V134.66" fill="#002E6C"/>
<path d="M1111.9 134.663H1145.01V143.345H1120.97V157.459H1140.36V166.141H1120.97V181.028H1145.01V189.712H1111.9V134.663Z" fill="#002E6C"/>
<path d="M909.078 143.189H900.705V162.108H909.078C915.592 162.108 919.313 158 919.313 152.648C919.313 147.299 915.592 143.189 909.078 143.189ZM909.156 170.637H900.705V189.712H891.632V134.66H909.156C920.476 134.66 928.229 142.491 928.229 152.648C928.229 162.807 920.476 170.637 909.156 170.637" fill="#002E6C"/>
<path d="M877.848 189.712H868.696V143.019H841.239V189.712H832.087V134.641H877.848V189.712" fill="#002E6C"/>
<path d="M1570.84 220.38H1542V235.655H1566.51V243.719H1542V258.993H1570.84V267.213H1532.85V212.161H1570.84V220.38" fill="#002E6C"/>
<path d="M1028.93 239.724C1028.93 228.984 1020.65 220.237 1009.91 220.237C999.091 220.237 990.805 228.984 990.805 239.724C990.805 250.463 999.091 259.208 1009.91 259.208C1020.65 259.208 1028.93 250.463 1028.93 239.724ZM981.752 239.724C981.752 223.997 994.257 211.571 1009.91 211.571C1025.48 211.571 1038.06 223.997 1038.06 239.724C1038.06 255.448 1025.48 267.877 1009.91 267.877C994.257 267.877 981.752 255.448 981.752 239.724Z" fill="#002E6C"/>
<path d="M1471.16 267.213V212.161H1480.31V251.707L1511.25 212.161H1519.16V267.213H1510.08V227.591L1479.07 267.213H1471.16Z" fill="#002E6C"/>
<path d="M1591.87 212.161L1611.09 238.215L1630.4 212.161H1638.69V267.213H1629.55V227.747L1611.17 252.713L1592.64 227.669V267.213H1583.56V212.161H1591.87" fill="#002E6C"/>
<path d="M1048.47 239.759C1048.47 223.823 1060.57 211.64 1076.81 211.64C1089.92 211.64 1100.34 220.145 1103.02 230.795H1093.36C1091.07 224.588 1084.48 220.297 1076.81 220.297C1065.47 220.297 1057.51 228.801 1057.51 239.759C1057.51 250.715 1065.47 259.219 1076.81 259.219C1084.48 259.219 1091.07 254.928 1093.36 248.723H1103.02C1100.34 259.373 1089.92 267.877 1076.81 267.877C1060.57 267.877 1048.47 255.695 1048.47 239.759" fill="#002E6C"/>
<path d="M1161.5 239.724C1161.5 228.984 1153.22 220.237 1142.48 220.237C1131.66 220.237 1123.38 228.984 1123.38 239.724C1123.38 250.463 1131.66 259.208 1142.48 259.208C1153.22 259.208 1161.5 250.463 1161.5 239.724ZM1114.33 239.724C1114.33 223.997 1126.83 211.571 1142.48 211.571C1158.05 211.571 1170.63 223.997 1170.63 239.724C1170.63 255.448 1158.05 267.877 1142.48 267.877C1126.83 267.877 1114.33 255.448 1114.33 239.724Z" fill="#002E6C"/>
<path d="M1339.15 239.724C1339.15 228.984 1330.86 220.237 1320.12 220.237C1309.31 220.237 1301.02 228.984 1301.02 239.724C1301.02 250.463 1309.31 259.208 1320.12 259.208C1330.86 259.208 1339.15 250.463 1339.15 239.724ZM1291.97 239.724C1291.97 223.997 1304.47 211.571 1320.12 211.571C1335.69 211.571 1348.28 223.997 1348.28 239.724C1348.28 255.448 1335.69 267.877 1320.12 267.877C1304.47 267.877 1291.97 255.448 1291.97 239.724Z" fill="#002E6C"/>
<path d="M1181.04 239.759C1181.04 223.823 1193.14 211.64 1209.39 211.64C1222.49 211.64 1232.91 220.145 1235.59 230.795H1225.94C1223.64 224.588 1217.05 220.297 1209.39 220.297C1198.05 220.297 1190.08 228.801 1190.08 239.759C1190.08 250.715 1198.05 259.219 1209.39 259.219C1217.05 259.219 1223.64 254.928 1225.94 248.723H1235.59C1232.91 259.373 1222.49 267.877 1209.39 267.877C1193.14 267.877 1181.04 255.695 1181.04 239.759" fill="#002E6C"/>
<path d="M1260.47 220.845H1244.5V212.161H1285.59V220.845H1269.54V267.213H1260.47V220.845Z" fill="#002E6C"/>
<path d="M795.183 242.324H783.397V258.761H795.183C801.387 258.761 804.952 255.893 804.952 250.62C804.952 245.269 801.387 242.324 795.183 242.324ZM795.26 233.951C805.96 233.951 813.947 240.308 813.947 250.62C813.947 260.777 805.96 267.213 795.26 267.213H774.248V212.161H808.984V220.845H783.397V233.951H795.26" fill="#002E6C"/>
<path d="M900.96 244.728H918.639L909.799 224.412L900.96 244.728ZM905.921 212.161H913.832L937.868 267.213H928.408L922.127 252.791H897.471L891.268 267.213H881.885L905.921 212.161" fill="#002E6C"/>
<path d="M831.472 212.161H870.767V267.081H861.639V220.824H840.599V250.915C840.599 262.749 835.108 268.009 826.908 268.009C824.975 268.009 823.351 267.932 822.189 267.699V259.268C823.195 259.424 824.356 259.501 825.748 259.501C829.46 259.501 831.472 257.567 831.472 249.677V212.161" fill="#002E6C"/>
<path d="M1378.71 238.059H1387.08V220.536H1378.71C1372.49 220.536 1368.85 223.947 1368.85 229.22C1368.85 234.569 1372.49 238.059 1378.71 238.059V238.059ZM1387.08 246.355H1381.57L1363.43 267.213H1352.33L1371.57 244.96C1364.44 242.711 1359.87 236.74 1359.87 229.22C1359.87 219.296 1367 212.161 1378.55 212.161H1396.15V267.213H1387.08V246.355Z" fill="#002E6C"/>
<path d="M1411.45 212.161H1420.53V234.959H1447.75V212.161H1456.81V267.213H1447.75V243.564H1420.53V267.213H1411.45V212.161" fill="#002E6C"/>
<path d="M976.275 220.531H958.12V267.223H948.967V212.152H976.275V220.531Z" fill="#002E6C"/>
<path d="M200.667 303.547V303.413H197.2V303.28H195.467V303.147H193.733V303.013H192.133V302.88H191.067V302.747H190V302.613H189.067V302.48H188V302.347H187.067V302.213H186.267V302.08H185.6V301.947H184.8V301.813H184V301.68H183.333V301.547H182.533V301.413H182V301.28H181.333V301.147H180.8V301.013H180.267V300.88H179.6V300.747H179.067V300.613H178.533V300.48H177.867V300.347H177.333V300.213H176.933V300.08H176.4V299.947H176V299.813H175.467V299.68H175.067V299.547H174.533V299.413H174.133V299.28H173.6V299.147H173.067V299.013H172.667V298.88H172.267V298.747H171.867V298.613H171.467V298.48H171.067V298.347H170.667V298.213H170.267V298.08H169.867V297.947H169.467V297.813H169.067V297.68H168.667V297.547H168.267V297.413H168V297.28H167.6V297.147H167.2V297.013H166.933V296.88H166.533V296.747H166.267V296.613H165.867V296.48H165.6V296.347H165.2V296.213H164.933V296.08H164.533V295.947H164.267V295.813H163.867V295.68H163.6V295.547H163.2V295.413H162.933V295.28H162.667V295.147H162.4V295.013H162V294.88H161.733V294.747H161.467V294.613H161.2V294.48H160.8V294.347H160.533V294.213H160.267V294.08H160V293.947H159.733V293.813H159.333V293.68H159.067V293.547H158.8V293.413H158.533V293.28H158.267V293.147H158V293.013H157.733V292.88H157.467V292.747H157.2V292.613H156.933V292.48H156.667V292.347H156.4V292.213H156.267V292.08H156V291.947H155.733V291.813H155.467V291.68H155.2V291.547H154.933V291.413H154.667V291.28H154.4V291.147H154.133V291.013H153.867V290.88H153.733V290.747H153.467V290.613H153.2V290.48H152.933V290.347H152.8V290.213H152.533V290.08H152.267V289.947H152.133V289.813H151.867V289.68H151.6V289.547H151.333V289.413H151.2V289.28H150.933V289.147H150.667V289.013H150.4V288.88H150.267V288.747H150V288.613H149.867V288.48H149.6V288.347H149.333V288.213H149.2V288.08H148.933V287.947H148.8V287.813H148.533V287.68H148.4V287.547H148.133V287.413H147.867V287.28H147.733V287.147H147.467V287.013H147.333V286.88H147.067V286.747H146.933V286.613H146.667V286.48H146.533V286.347H146.267V286.213H146V286.08H145.867V285.947H145.733V285.813H145.467V285.68H145.333V285.547H145.067V285.413H144.933V285.28H144.8V285.147H144.533V285.013H144.4V284.88H144.133V284.747H144V284.613H143.867V284.48H143.6V284.347H143.467V284.213H143.2V284.08H143.067V283.947H142.933V283.813H142.667V283.68H142.533V283.547H142.267V283.413H142.133V283.28H142V283.147H141.733V283.013H141.6V282.88H141.467V282.747H141.333V282.613H141.067V282.48H140.933V282.347H140.8V282.213H140.533V282.08H140.4V281.947H140.267V281.813H140.133V281.68H139.867V281.547H139.733V281.413H139.6V281.28H139.467V281.147H139.2V281.013H139.067V280.88H138.933V280.747H138.667V280.613H138.533V280.48H138.4V280.347H138.267V280.213H138.133V280.08H137.867V279.947H137.733V279.813H137.6V279.68H137.467V279.547H137.333V279.413H137.2V279.28H136.933V279.147H136.8V279.013H136.667V278.88H136.533V278.747H136.4V278.613H136.267V278.48H136.133V278.347H135.867V278.213H135.733V278.08H135.6V277.947H135.467V277.813H135.333V277.68H135.2V277.547H134.933V277.413H134.8V277.28H134.667V277.147H134.533V277.013H134.4V276.88H134.267V276.747H134.133V276.613H134V276.48H133.867V276.347H133.733V276.213H133.6V276.08H133.467V275.947H133.333V275.813H133.2V275.68H133.067V275.547H132.8V275.413H132.667V275.28H132.533V275.147H132.4V275.013H132.267V274.88H132.133V274.747H132V274.613H131.867V274.48H131.733V274.347H131.6V274.213H131.467V274.08H131.333V273.947H131.2V273.813H131.067V273.68H130.933V273.547H130.8V273.413H130.667V273.28H130.533V273.147H130.4V273.013H130.267V272.88H130.133V272.747H130V272.613H129.867V272.48H129.733V272.347H129.6V272.213H129.467V272.08H129.333V271.813H129.2V271.68H129.067V271.547H128.933V271.413H128.8V271.28H128.667V271.147H128.533V271.013H128.4V270.88H128.267V270.747H128.133V270.613H128V270.48H127.867V270.347H127.733V270.213H127.6V270.08H127.467V269.947H127.333V269.68H127.2V269.547H127.067V269.413H126.933V269.28H126.8V269.147H126.667V269.013H126.533V268.747H126.4V268.613H126.267V268.48H126.133V268.347H126V268.213H125.867V268.08H125.733V267.947H125.6V267.68H125.467V267.547H125.333V267.413H125.2V267.28H125.067V267.147H124.933V267.013H124.8V266.747H124.667V266.613H124.533V266.48H124.4V266.347H124.267V266.213H124.133V265.947H124V265.813H123.867V265.68H123.733V265.413H123.6V265.28H123.467V265.147H123.333V265.013H123.2V264.747H123.067V264.613H122.933V264.48H122.8V264.347H122.667V264.08H122.533V263.947H122.4V263.813H122.267V263.547H122.133V263.413H122V263.28H121.867V263.147H121.733V262.88H121.6V262.747H121.467V262.613H121.333V262.347H121.2V262.213H121.067V261.947H120.933V261.813H120.8V261.68H120.667V261.413H120.533V261.28H120.4V261.013H120.267V260.88H120.133V260.747H120V260.48H119.867V260.347H119.733V260.08H119.6V259.947H119.467V259.813H119.333V259.547H119.2V259.413H119.067V259.147H118.933V259.013H118.8V258.88H118.667V258.613H118.533V258.347H118.4V258.213H118.267V257.947H118.133V257.813H118V257.547H117.867V257.413H117.733V257.147H117.6V257.013H117.467V256.747H117.333V256.48H117.2V256.347H117.067V256.08H116.933V255.947H116.8V255.68H116.667V255.547H116.533V255.28H116.4V255.147H116.267V254.88H116.133V254.613H116V254.48H115.867V254.213H115.733V253.947H115.6V253.68H115.467V253.547H115.333V253.28H115.2V253.013H115.067V252.88H114.933V252.613H114.8V252.347H114.667V252.08H114.533V251.947H114.4V251.68H114.267V251.413H114.133V251.147H114V251.013H113.867V250.747H113.733V250.48H113.6V250.213H113.467V249.947H113.333V249.68H113.2V249.413H113.067V249.147H112.933V248.88H112.8V248.747H112.667V248.48H112.533V248.213H112.4V247.947H112.267V247.68H112.133V247.413H112V247.147H111.867V246.88H111.733V246.613H111.6V246.347H111.467V246.08H111.333V245.813H111.2V245.547H111.067V245.147H110.933V244.88H110.8V244.613H110.667V244.347H110.533V244.08H110.4V243.68H110.267V243.413H110.133V243.147H110V242.88H109.867V242.613H109.733V242.213H109.6V241.947H109.467V241.68H109.333V241.28H109.2V241.013H109.067V240.613H108.933V240.347H108.8V239.947H108.667V239.68H108.533V239.28H108.4V239.013H108.267V238.613H108.133V238.347H108V237.947H107.867V237.68H107.733V237.28H107.6V237.013H107.467V236.613H107.333V236.213H107.2V235.813H107.067V235.413H106.933V235.013H106.8V234.613H106.667V234.213H106.533V233.813H106.4V233.413H106.267V233.013H106.133V232.613H106V232.213H105.867V231.813H105.733V231.28H105.6V230.88H105.467V230.347H105.333V229.947H105.2V229.413H105.067V228.88H104.933V228.48H104.8V227.947H104.667V227.547H104.533V227.013H104.4V226.48H104.267V225.813H104.133V225.28H104V224.747H103.867V224.08H103.733V223.547H103.6V223.013H103.467V222.347H103.333V221.547H103.2V220.88H103.067V220.08H102.933V219.413H102.8V218.613H102.667V217.813H102.533V217.013H102.4V215.947H102.267V214.88H102.133V213.813H102V212.747H101.867V211.28H101.733V209.547H101.6V207.813H101.467V204.347H101.333V199.547H101.467V196.213H101.6V194.48H101.733V192.613H101.867V191.147H102V190.08H102.133V189.013H102.267V187.947H102.4V187.013H102.533V186.08H102.667V185.28H102.8V184.613H102.933V183.813H103.067V183.013H103.2V182.347H103.333V181.547H103.467V181.013H103.6V180.347H103.733V179.813H103.867V179.28H104V178.613H104.133V178.08H104.267V177.547H104.4V176.88H104.533V176.347H104.667V175.947H104.8V175.413H104.933V175.013H105.067V174.48H105.2V174.08H105.333V173.547H105.467V173.147H105.6V172.613H105.733V172.213H105.867V171.68H106V171.28H106.133V170.88H106.267V170.48H106.4V170.08H106.533V169.68H106.667V169.28H106.8V168.88H106.933V168.48H107.067V168.08H107.2V167.813H107.333V167.413H107.467V167.013H107.6V166.613H107.733V166.347H107.867V165.947H108V165.68H108.133V165.28H108.267V164.88H108.4V164.613H108.533V164.213H108.667V163.947H108.8V163.547H108.933V163.28H109.067V162.88H109.2V162.613H109.333V162.213H109.467V161.947H109.6V161.68H109.733V161.413H109.867V161.013H110V160.747H110.133V160.48H110.267V160.213H110.4V159.947H110.533V159.547H110.667V159.28H110.8V159.013H110.933V158.747H111.067V158.48H111.2V158.08H111.333V157.813H111.467V157.547H111.6V157.28H111.733V157.013H111.867V156.747H112V156.48H112.133V156.213H112.267V156.08H112.4V155.813H112.533V155.547H112.667V155.28H112.8V155.013H112.933V154.747H113.067V154.48H113.2V154.213H113.333V153.947H113.467V153.68H113.6V153.413H113.733V153.147H113.867V153.013H114V152.747H114.133V152.48H114.267V152.213H114.4V152.08H114.533V151.813H114.667V151.547H114.8V151.28H114.933V151.147H115.067V150.88H115.2V150.613H115.333V150.347H115.467V150.213H115.6V149.947H115.733V149.68H115.867V149.547H116V149.28H116.133V149.013H116.267V148.88H116.4V148.613H116.533V148.48H116.667V148.213H116.8V147.947H116.933V147.813H117.067V147.547H117.2V147.413H117.333V147.147H117.467V147.013H117.6V146.747H117.733V146.613H117.867V146.347H118V146.08H118.133V145.947H118.267V145.68H118.4V145.547H118.533V145.28H118.667V145.147H118.8V144.88H118.933V144.747H119.067V144.48H119.2V144.347H119.333V144.213H119.467V143.947H119.6V143.813H119.733V143.547H119.867V143.413H120V143.28H120.133V143.013H120.267V142.88H120.4V142.613H120.533V142.48H120.667V142.347H120.8V142.08H120.933V141.947H121.067V141.68H121.2V141.547H121.333V141.413H121.467V141.147H121.6V141.013H121.733V140.88H121.867V140.613H122V140.48H122.133V140.347H122.267V140.08H122.4V139.947H122.533V139.813H122.667V139.68H122.8V139.413H122.933V139.28H123.067V139.147H123.2V139.013H123.333V138.747H123.467V138.613H123.6V138.48H123.733V138.213H123.867V138.08H124V137.947H124.133V137.813H124.267V137.547H124.4V137.413H124.533V137.28H124.667V137.147H124.8V137.013H124.933V136.747H125.067V136.613H125.2V136.48H125.333V136.347H125.467V136.213H125.6V136.08H125.733V135.947H125.867V135.68H126V135.547H126.133V135.413H126.267V135.28H126.4V135.147H126.533V135.013H126.667V134.747H126.8V134.613H126.933V134.48H127.067V134.347H127.2V134.213H127.333V134.08H127.467V133.947H127.6V133.68H127.733V133.547H127.867V133.413H128V133.28H128.133V133.147H128.267V133.013H128.4V132.88H128.533V132.747H128.667V132.613H128.8V132.48H128.933V132.347H129.067V132.213H129.2V132.08H129.333V131.947H129.467V131.813H129.6V131.68H129.733V131.547H129.867V131.28H130V131.147H130.133V131.013H130.267V130.88H130.4V130.747H130.533V130.613H130.667V130.48H130.8V130.347H130.933V130.213H131.067V130.08H131.2V129.947H131.333V129.813H131.467V129.68H131.6V129.547H131.733V129.413H131.867V129.28H132V129.147H132.133V129.013H132.267V128.88H132.533V128.747H132.667V128.613H132.8V128.48H132.933V128.347H133.067V128.213H133.2V128.08H133.333V127.947H133.467V127.813H133.6V127.68H133.733V127.547H133.867V127.413H134V127.28H134.133V127.147H134.267V127.013H134.4V126.88H134.533V126.747H134.667V126.613H134.933V126.48H135.067V126.347H135.2V126.213H135.333V126.08H135.467V125.947H135.6V125.813H135.733V125.68H136V125.547H136.133V125.413H136.267V125.28H136.4V125.147H136.533V125.013H136.667V124.88H136.933V124.747H137.067V124.613H137.2V124.48H137.333V124.347H137.467V124.213H137.6V124.08H137.733V123.947H138V123.813H138.133V123.68H138.267V123.547H138.4V123.413H138.533V123.28H138.8V123.147H138.933V123.013H139.067V122.88H139.333V122.747H139.467V122.613H139.6V122.48H139.733V122.347H140V122.213H140.133V122.08H140.267V121.947H140.4V121.813H140.667V121.68H140.8V121.547H140.933V121.413H141.2V121.28H141.333V121.147H141.467V121.013H141.6V120.88H141.867V120.747H142V120.613H142.133V120.48H142.4V120.347H142.533V120.213H142.667V120.08H142.933V119.947H143.067V119.813H143.333V119.68H143.467V119.547H143.6V119.413H143.867V119.28H144V119.147H144.267V119.013H144.4V118.88H144.533V118.747H144.8V118.613H144.933V118.48H145.2V118.347H145.333V118.213H145.6V118.08H145.733V117.947H145.867V117.813H146.133V117.68H146.267V117.547H146.533V117.413H146.667V117.28H146.933V117.147H147.2V117.013H147.333V116.88H147.6V116.747H147.733V116.613H148V116.48H148.133V116.347H148.4V116.213H148.533V116.08H148.8V115.947H149.067V115.813H149.2V115.68H149.467V115.547H149.6V115.413H149.867V115.28H150V115.147H150.267V115.013H150.533V114.88H150.667V114.747H150.933V114.613H151.2V114.48H151.467V114.347H151.6V114.213H151.867V114.08H152.133V113.947H152.4V113.813H152.533V113.68H152.8V113.547H153.067V113.413H153.333V113.28H153.467V113.147H153.733V113.013H154V112.88H154.267V112.747H154.4V112.613H154.667V112.48H154.933V112.347H155.2V112.213H155.467V112.08H155.733V111.947H156V111.813H156.267V111.68H156.533V111.547H156.8V111.413H157.067V111.28H157.333V111.147H157.6V111.013H157.867V110.88H158.133V110.747H158.4V110.613H158.533V110.48H158.8V110.347H159.2V110.213H159.467V110.08H159.733V109.947H160V109.813H160.267V109.68H160.667V109.547H160.933V109.413H161.2V109.28H161.467V109.147H161.867V109.013H162.133V108.88H162.4V108.747H162.667V108.613H162.933V108.48H163.333V108.347H163.6V108.213H164V108.08H164.267V107.947H164.667V107.813H164.933V107.68H165.333V107.547H165.6V107.413H166V107.28H166.267V107.147H166.667V107.013H166.933V106.88H167.333V106.747H167.733V106.613H168V106.48H168.4V106.347H168.8V106.213H169.2V106.08H169.6V105.947H170V105.813H170.4V105.68H170.8V105.547H171.2V105.413H171.6V105.28H172V105.147H172.4V105.013H172.8V104.88H173.2V104.747H173.733V104.613H174.133V104.48H174.667V104.347H175.067V104.213H175.6V104.08H176V103.947H176.533V103.813H176.933V103.68H177.467V103.547H178V103.413H178.533V103.28H179.2V103.147H179.733V103.013H180.267V102.88H180.933V102.747H181.467V102.613H182V102.48H182.667V102.347H183.467V102.213H184.267V102.08H184.933V101.947H185.733V101.813H186.4V101.68H187.2V101.547H188.133V101.413H189.2V101.28H190.267V101.147H191.333V101.013H192.4V100.88H194V100.747H195.733V100.613H197.6V100.48H201.467V100.347H204.4V100.48H208.267V100.613H210V100.747H211.733V100.88H213.467V101.013H214.533V101.147H215.6V101.28H216.667V101.413H217.6V101.547H218.667V101.68H219.333V101.813H220.133V101.947H220.933V102.08H221.6V102.213H222.4V102.347H223.067V102.48H223.733V102.613H224.4V102.747H224.933V102.88H225.467V103.013H226.133V103.147H226.667V103.28H227.2V103.413H227.867V103.547H228.4V103.68H228.8V103.813H229.333V103.947H229.733V104.08H230.267V104.213H230.667V104.347H231.2V104.48H231.6V104.613H232.133V104.747H232.667V104.88H233.067V105.013H233.467V105.147H233.867V105.28H234.267V105.413H234.667V105.547H235.067V105.68H235.467V105.813H235.867V105.947H236.267V106.08H236.667V106.213H237.067V106.347H237.467V106.48H237.867V106.613H238.133V106.747H238.533V106.88H238.8V107.013H239.2V107.147H239.467V107.28H239.867V107.413H240.133V107.547H240.533V107.68H240.8V107.813H241.2V107.947H241.6V108.08H241.867V108.213H242.267V108.347H242.533V108.48H242.8V108.613H243.2V108.747H243.467V108.88H243.733V109.013H244V109.147H244.267V109.28H244.667V109.413H244.933V109.547H245.2V109.68H245.467V109.813H245.733V109.947H246.133V110.08H246.4V110.213H246.667V110.347H246.933V110.48H247.2V110.613H247.467V110.747H247.733V110.88H248V111.013H248.267V111.147H248.533V111.28H248.8V111.413H249.067V111.547H249.333V111.68H249.6V111.813H249.867V111.947H250.133V112.08H250.4V112.213H250.667V112.347H250.933V112.48H251.2V112.613H251.333V112.747H251.6V112.88H251.867V113.013H252.133V113.147H252.267V113.28H252.533V113.413H252.8V113.547H253.067V113.68H253.2V113.813H253.467V113.947H253.733V114.08H254V114.213H254.133V114.347H254.4V114.48H254.667V114.613H254.933V114.747H255.067V114.88H255.333V115.013H255.6V115.147H255.733V115.28H256V115.413H256.133V115.547H256.4V115.68H256.667V115.813H256.8V115.947H257.067V116.08H257.2V116.213H257.467V116.347H257.6V116.48H257.867V116.613H258V116.747H258.267V116.88H258.533V117.013H258.667V117.147H258.933V117.28H259.067V117.413H259.333V117.547H259.467V117.68H259.733V117.813H259.867V117.947H260.133V118.08H260.267V118.213H260.533V118.347H260.667V118.48H260.8V118.613H261.067V118.747H261.2V118.88H261.467V119.013H261.6V119.147H261.733V119.28H262V119.413H262.133V119.547H262.4V119.68H262.533V119.813H262.667V119.947H262.933V120.08H263.067V120.213H263.333V120.347H263.467V120.48H263.6V120.613H263.867V120.747H264V120.88H264.133V121.013H264.4V121.147H264.533V121.28H264.667V121.413H264.8V121.547H265.067V121.68H265.2V121.813H265.333V121.947H265.6V122.08H265.733V122.213H265.867V122.347H266V122.48H266.267V122.613H266.4V122.747H266.533V122.88H266.667V123.013H266.933V123.147H267.067V123.28H267.2V123.413H267.467V123.547H267.6V123.68H267.733V123.813H267.867V123.947H268V124.08H268.133V124.213H268.4V124.347H268.533V124.48H268.667V124.613H268.8V124.747H268.933V124.88H269.067V125.013H269.2V125.147H269.467V125.28H269.6V125.413H269.733V125.547H269.867V125.68H270V125.813H270.133V125.947H270.4V126.08H270.533V126.213H270.667V126.347H270.8V126.48H270.933V126.613H271.067V126.747H271.2V126.88H271.333V127.013H271.6V127.147H271.733V127.28H271.867V127.413H272V127.547H272.133V127.68H272.267V127.813H272.4V127.947H272.533V128.08H272.667V128.213H272.8V128.347H272.933V128.48H273.067V128.613H273.2V128.747H273.333V128.88H273.467V129.013H273.6V129.147H273.733V129.28H273.867V129.413H274V129.547H274.133V129.68H274.4V129.813H274.533V129.947H274.667V130.08H274.8V130.213H274.933V130.347H275.067V130.48H275.2V130.747H275.333V130.88H275.467V131.013H275.6V131.147H275.733V131.28H275.867V131.413H276V131.547H276.133V131.68H276.267V131.813H276.4V131.947H276.533V132.08H276.667V132.213H276.8V132.347H276.933V132.48H277.067V132.613H277.2V132.747H277.333V132.88H277.467V133.013H277.6V133.147H277.733V133.28H277.867V133.547H278V133.68H278.133V133.813H278.267V133.947H278.4V134.08H278.533V134.213H278.667V134.347H278.8V134.48H278.933V134.747H279.067V134.88H279.2V135.013H279.333V135.147H279.467V135.28H279.6V135.413H279.733V135.68H279.867V135.813H280V135.947H280.133V136.08H280.267V136.213H280.4V136.347H280.533V136.48H280.667V136.747H280.8V136.88H280.933V137.013H281.067V137.147H281.2V137.28H281.333V137.413H281.467V137.68H281.6V137.813H281.733V137.947H281.867V138.213H282V138.347H282.133V138.48H282.267V138.613H282.4V138.88H282.533V139.013H282.667V139.147H282.8V139.28H282.933V139.547H283.067V139.68H283.2V139.813H283.333V140.08H283.467V140.213H283.6V140.347H283.733V140.48H283.867V140.747H284V140.88H284.133V141.013H284.267V141.28H284.4V141.413H284.533V141.547H284.667V141.813H284.8V141.947H284.933V142.213H285.067V142.347H285.2V142.48H285.333V142.747H285.467V142.88H285.6V143.147H285.733V143.28H285.867V143.413H286V143.68H286.133V143.813H286.267V144.08H286.4V144.213H286.533V144.347H286.667V144.613H286.8V144.747H286.933V145.013H287.067V145.147H287.2V145.413H287.333V145.547H287.467V145.813H287.6V145.947H287.733V146.213H287.867V146.347H288V146.613H288.133V146.88H288.267V147.013H288.4V147.28H288.533V147.413H288.667V147.68H288.8V147.813H288.933V148.08H289.067V148.213H289.2V148.48H289.333V148.747H289.467V148.88H289.6V149.147H289.733V149.28H289.867V149.547H290V149.813H290.133V149.947H290.267V150.213H290.4V150.48H290.533V150.747H290.667V150.88H290.8V151.147H290.933V151.413H291.067V151.68H291.2V151.813H291.333V152.08H291.467V152.347H291.6V152.613H291.733V152.747H291.867V153.013H292V153.28H292.133V153.547H292.267V153.813H292.4V153.947H292.533V154.213H292.667V154.48H292.8V154.747H292.933V155.013H293.067V155.28H293.2V155.547H293.333V155.813H293.467V156.08H293.6V156.347H293.733V156.613H293.867V156.88H294V157.147H294.133V157.413H294.267V157.68H294.4V157.947H294.533V158.213H294.667V158.48H294.8V158.747H294.933V159.147H295.067V159.413H295.2V159.68H295.333V159.947H295.467V160.213H295.6V160.613H295.733V160.88H295.867V161.147H296V161.413H296.133V161.813H296.267V162.08H296.4V162.347H296.533V162.613H296.667V163.013H296.8V163.413H296.933V163.68H297.067V164.08H297.2V164.347H297.333V164.747H297.467V165.013H297.6V165.413H297.733V165.68H297.867V166.08H298V166.347H298.133V166.747H298.267V167.013H298.4V167.413H298.533V167.813H298.667V168.213H298.8V168.613H298.933V169.013H299.067V169.413H299.2V169.813H299.333V170.213H299.467V170.613H299.6V171.013H299.733V171.413H299.867V171.813H300V172.347H300.133V172.747H300.267V173.28H300.4V173.68H300.533V174.213H300.667V174.613H300.8V175.147H300.933V175.547H301.067V176.08H301.2V176.48H301.333V177.147H301.467V177.68H301.6V178.213H301.733V178.88H301.867V179.413H302V179.947H302.133V180.613H302.267V181.147H302.4V181.813H302.533V182.48H302.667V183.28H302.8V184.08H302.933V184.747H303.067V185.547H303.2V186.347H303.333V187.28H303.467V188.347H303.6V189.413H303.733V190.347H303.867V191.413H304V193.147H304.133V194.88H304.267V196.747H304.4V207.28H304.267V209.013H304.133V210.747H304V212.48H303.867V213.547H303.733V214.613H303.6V215.547H303.467V216.613H303.333V217.68H303.2V218.347H303.067V219.147H302.933V219.947H302.8V220.613H302.667V221.413H302.533V222.08H302.4V222.747H302.267V223.413H302.133V223.947H302V224.48H301.867V225.147H301.733V225.68H301.6V226.213H301.467V226.88H301.333V227.413H301.2V227.813H301.067V228.347H300.933V228.747H300.8V229.28H300.667V229.813H300.533V230.213H300.4V230.747H300.267V231.147H300.133V231.68H300V232.08H299.867V232.48H299.733V232.88H299.6V233.28H299.467V233.68H299.333V234.08H299.2V234.48H299.067V234.88H298.933V235.28H298.8V235.68H298.667V236.08H298.533V236.48H298.4V236.88H298.267V237.147H298.133V237.547H298V237.813H297.867V238.213H297.733V238.48H297.6V238.88H297.467V239.28H297.333V239.547H297.2V239.947H297.067V240.213H296.933V240.613H296.8V240.88H296.667V241.28H296.533V241.547H296.4V241.813H296.267V242.213H296.133V242.48H296V242.747H295.867V243.013H295.733V243.413H295.6V243.68H295.467V243.947H295.333V244.213H295.2V244.48H295.067V244.88H294.933V245.147H294.8V245.413H294.667V245.68H294.533V245.947H294.4V246.213H294.267V246.48H294.133V246.747H294V247.013H293.867V247.28H293.733V247.547H293.6V247.813H293.467V248.08H293.333V248.347H293.2V248.613H293.067V248.88H292.933V249.147H292.8V249.413H292.667V249.68H292.533V249.947H292.4V250.213H292.267V250.48H292.133V250.613H292V250.88H291.867V251.147H291.733V251.413H291.6V251.547H291.467V251.813H291.333V252.08H291.2V252.347H291.067V252.48H290.933V252.747H290.8V253.013H290.667V253.147H290.533V253.413H290.4V253.68H290.267V253.947H290.133V254.08H290V254.347H289.867V254.613H289.733V254.88H289.6V255.013H289.467V255.28H289.333V255.413H289.2V255.68H289.067V255.813H288.933V256.08H288.8V256.213H288.667V256.48H288.533V256.747H288.4V256.88H288.267V257.147H288.133V257.28H288V257.547H287.867V257.68H287.733V257.947H287.6V258.08H287.467V258.347H287.333V258.613H287.2V258.747H287.067V259.013H286.933V259.147H286.8V259.28H286.667V259.547H286.533V259.68H286.4V259.947H286.267V260.08H286.133V260.213H286V260.48H285.867V260.613H285.733V260.88H285.6V261.013H285.467V261.147H285.333V261.413H285.2V261.547H285.067V261.813H284.933V261.947H284.8V262.08H284.667V262.347H284.533V262.48H284.4V262.747H284.267V262.88H284.133V263.013H284V263.28H283.867V263.413H283.733V263.547H283.6V263.68H283.467V263.947H283.333V264.08H283.2V264.213H283.067V264.347H282.933V264.613H282.8V264.747H282.667V264.88H282.533V265.147H282.4V265.28H282.267V265.413H282.133V265.547H282V265.813H281.867V265.947H281.733V266.08H281.6V266.213H281.467V266.48H281.333V266.613H281.2V266.747H281.067V266.88H280.933V267.013H280.8V267.28H280.667V267.413H280.533V267.547H280.4V267.68H280.267V267.813H280.133V267.947H280V268.213H279.867V268.347H279.733V268.48H279.6V268.613H279.467V268.747H279.333V268.88H279.2V269.013H279.067V269.28H278.933V269.413H278.8V269.547H278.667V269.68H278.533V269.813H278.4V269.947H278.267V270.213H278.133V270.347H278V270.48H277.867V270.613H277.733V270.747H277.6V270.88H277.467V271.013H277.333V271.147H277.2V271.28H277.067V271.413H276.933V271.547H276.8V271.68H276.667V271.813H276.533V271.947H276.4V272.08H276.267V272.213H276.133V272.347H276V272.48H275.867V272.613H275.733V272.88H275.6V273.013H275.467V273.147H275.333V273.28H275.2V273.413H275.067V273.547H274.933V273.68H274.8V273.813H274.667V273.947H274.533V274.08H274.4V274.213H274.267V274.347H274.133V274.48H274V274.613H273.867V274.747H273.6V274.88H273.467V275.013H273.333V275.147H273.2V275.28H273.067V275.413H272.933V275.547H272.8V275.68H272.667V275.813H272.533V275.947H272.4V276.08H272.267V276.213H272.133V276.347H272V276.48H271.867V276.613H271.733V276.747H271.6V276.88H271.467V277.013H271.333V277.147H271.2V277.28H270.933V277.413H270.8V277.547H270.667V277.68H270.533V277.813H270.4V277.947H270.267V278.08H270V278.213H269.867V278.347H269.733V278.48H269.6V278.613H269.467V278.747H269.333V278.88H269.2V279.013H268.933V279.147H268.8V279.28H268.667V279.413H268.533V279.547H268.4V279.68H268.267V279.813H268V279.947H267.867V280.08H267.733V280.213H267.6V280.347H267.467V280.48H267.2V280.613H267.067V280.747H266.933V280.88H266.8V281.013H266.533V281.147H266.4V281.28H266.267V281.413H266.133V281.547H265.867V281.68H265.733V281.813H265.6V281.947H265.467V282.08H265.2V282.213H265.067V282.347H264.933V282.48H264.667V282.613H264.533V282.747H264.4V282.88H264.267V283.013H264V283.147H263.867V283.28H263.733V283.413H263.467V283.547H263.333V283.68H263.2V283.813H262.933V283.947H262.8V284.08H262.533V284.213H262.4V284.347H262.267V284.48H262V284.613H261.867V284.747H261.6V284.88H261.467V285.013H261.2V285.147H261.067V285.28H260.933V285.413H260.667V285.547H260.533V285.68H260.267V285.813H260.133V285.947H260V286.08H259.733V286.213H259.6V286.347H259.333V286.48H259.2V286.613H258.933V286.747H258.667V286.88H258.533V287.013H258.267V287.147H258.133V287.28H257.867V287.413H257.733V287.547H257.467V287.68H257.333V287.813H257.067V287.947H256.8V288.08H256.667V288.213H256.4V288.347H256.267V288.48H256V288.613H255.867V288.747H255.6V288.88H255.333V289.013H255.2V289.147H254.933V289.28H254.667V289.413H254.4V289.547H254.267V289.68H254V289.813H253.733V289.947H253.467V290.08H253.333V290.213H253.067V290.347H252.8V290.48H252.533V290.613H252.4V290.747H252.133V290.88H251.867V291.013H251.733V291.147H251.467V291.28H251.2V291.413H250.933V291.547H250.667V291.68H250.4V291.813H250.133V291.947H249.867V292.08H249.6V292.213H249.333V292.347H249.067V292.48H248.8V292.613H248.533V292.747H248.267V292.88H248V293.013H247.867V293.147H247.6V293.28H247.333V293.413H247.067V293.547H246.8V293.68H246.4V293.813H246.133V293.947H245.867V294.08H245.6V294.213H245.2V294.347H244.933V294.48H244.667V294.613H244.4V294.747H244.133V294.88H243.733V295.013H243.467V295.147H243.2V295.28H242.933V295.413H242.667V295.547H242.267V295.68H242V295.813H241.6V295.947H241.333V296.08H240.933V296.213H240.533V296.347H240.267V296.48H239.867V296.613H239.6V296.747H239.2V296.88H238.933V297.013H238.533V297.147H238.267V297.28H237.867V297.413H237.467V297.547H237.067V297.68H236.667V297.813H236.267V297.947H235.867V298.08H235.467V298.213H235.067V298.347H234.8V298.48H234.4V298.613H234V298.747H233.6V298.88H233.2V299.013H232.667V299.147H232.267V299.28H231.733V299.413H231.333V299.547H230.8V299.68H230.4V299.813H229.867V299.947H229.467V300.08H228.933V300.213H228.533V300.347H227.867V300.48H227.333V300.613H226.8V300.747H226.133V300.88H225.6V301.013H225.067V301.147H224.4V301.28H223.867V301.413H223.2V301.547H222.533V301.68H221.733V301.813H221.067V301.947H220.267V302.08H219.467V302.213H218.8V302.347H217.867V302.48H216.8V302.613H215.733V302.747H214.667V302.88H213.733V303.013H212.133V303.147H210.4V303.28H208.667V303.413H205.2V303.547" fill="url(#paint0_linear_43839_50)"/>
<path d="M227.733 273.547V273.413H225.467V273.28H223.6V273.147H222V273.013H220.933V272.88H219.733V272.747H218.667V272.613H217.6V272.48H216.8V272.347H216V272.213H215.2V272.08H214.4V271.947H213.6V271.813H212.933V271.68H212.267V271.547H211.6V271.413H210.933V271.28H210.4V271.147H209.733V271.013H209.067V270.88H208.533V270.747H208V270.613H207.467V270.48H206.933V270.347H206.4V270.213H205.867V270.08H205.333V269.947H204.8V269.813H204.4V269.68H204V269.547H203.467V269.413H203.067V269.28H202.667V269.147H202.133V269.013H201.733V268.88H201.333V268.747H200.8V268.613H200.4V268.48H200V268.347H199.6V268.213H199.2V268.08H198.8V267.947H198.4V267.813H198V267.68H197.733V267.547H197.333V267.413H196.933V267.28H196.533V267.147H196.133V267.013H195.733V266.88H195.467V266.747H195.067V266.613H194.8V266.48H194.4V266.347H194.133V266.213H193.733V266.08H193.333V265.947H193.067V265.813H192.667V265.68H192.4V265.547H192V265.413H191.733V265.28H191.333V265.147H191.067V265.013H190.8V264.88H190.533V264.747H190.133V264.613H189.867V264.48H189.6V264.347H189.333V264.213H188.933V264.08H188.667V263.947H188.4V263.813H188.133V263.68H187.733V263.547H187.467V263.413H187.2V263.28H186.933V263.147H186.667V263.013H186.4V262.88H186.133V262.747H185.867V262.613H185.6V262.48H185.333V262.347H185.067V262.213H184.8V262.08H184.533V261.947H184.267V261.813H184V261.68H183.733V261.547H183.467V261.413H183.2V261.28H182.933V261.147H182.667V261.013H182.4V260.88H182.133V260.747H181.867V260.613H181.733V260.48H181.467V260.347H181.2V260.213H180.933V260.08H180.667V259.947H180.4V259.813H180.267V259.68H180V259.547H179.733V259.413H179.467V259.28H179.2V259.147H178.933V259.013H178.8V258.88H178.533V258.747H178.267V258.613H178.133V258.48H177.867V258.347H177.6V258.213H177.467V258.08H177.2V257.947H176.933V257.813H176.8V257.68H176.533V257.547H176.267V257.413H176.133V257.28H175.867V257.147H175.6V257.013H175.467V256.88H175.2V256.747H174.933V256.613H174.8V256.48H174.533V256.347H174.4V256.213H174.133V256.08H174V255.947H173.733V255.813H173.6V255.68H173.333V255.547H173.2V255.413H172.933V255.28H172.8V255.147H172.533V255.013H172.4V254.88H172.133V254.747H172V254.613H171.733V254.48H171.6V254.347H171.333V254.213H171.2V254.08H170.933V253.947H170.8V253.813H170.533V253.68H170.4V253.547H170.133V253.413H170V253.28H169.867V253.147H169.6V253.013H169.467V252.88H169.333V252.747H169.067V252.613H168.933V252.48H168.667V252.347H168.533V252.213H168.4V252.08H168.133V251.947H168V251.813H167.867V251.68H167.6V251.547H167.467V251.413H167.2V251.28H167.067V251.147H166.933V251.013H166.667V250.88H166.533V250.747H166.4V250.613H166.267V250.48H166V250.347H165.867V250.213H165.733V250.08H165.467V249.947H165.333V249.813H165.2V249.68H165.067V249.547H164.8V249.413H164.667V249.28H164.533V249.147H164.4V249.013H164.133V248.88H164V248.747H163.867V248.613H163.733V248.48H163.467V248.347H163.333V248.213H163.2V248.08H162.933V247.947H162.8V247.813H162.667V247.68H162.533V247.547H162.4V247.413H162.267V247.28H162V247.147H161.867V247.013H161.733V246.88H161.6V246.747H161.467V246.613H161.333V246.48H161.2V246.347H160.933V246.213H160.8V246.08H160.667V245.947H160.533V245.813H160.4V245.68H160.267V245.547H160V245.413H159.867V245.28H159.733V245.147H159.6V245.013H159.467V244.88H159.333V244.747H159.067V244.613H158.933V244.48H158.8V244.347H158.667V244.213H158.533V244.08H158.4V243.947H158.267V243.813H158.133V243.68H158V243.547H157.867V243.413H157.733V243.28H157.6V243.147H157.467V243.013H157.2V242.88H157.067V242.747H156.933V242.613H156.8V242.48H156.667V242.347H156.533V242.213H156.4V242.08H156.267V241.947H156.133V241.813H156V241.68H155.867V241.547H155.733V241.413H155.6V241.28H155.467V241.147H155.333V241.013H155.2V240.88H155.067V240.747H154.933V240.613H154.8V240.48H154.667V240.347H154.533V240.213H154.4V240.08H154.267V239.947H154.133V239.813H154V239.68H153.867V239.547H153.733V239.413H153.6V239.28H153.467V239.147H153.333V239.013H153.2V238.88H153.067V238.747H152.933V238.613H152.8V238.48H152.667V238.347H152.533V238.213H152.4V238.08H152.267V237.947H152.133V237.68H152V237.547H151.867V237.413H151.733V237.28H151.6V237.147H151.467V237.013H151.333V236.88H151.2V236.747H151.067V236.613H150.933V236.347H150.8V236.213H150.667V236.08H150.533V235.947H150.4V235.813H150.267V235.68H150.133V235.547H150V235.413H149.867V235.147H149.733V235.013H149.6V234.88H149.467V234.747H149.333V234.613H149.2V234.48H149.067V234.347H148.933V234.213H148.8V234.08H148.667V233.813H148.533V233.68H148.4V233.547H148.267V233.413H148.133V233.147H148V233.013H147.867V232.88H147.733V232.747H147.6V232.613H147.467V232.347H147.333V232.213H147.2V232.08H147.067V231.947H146.933V231.68H146.8V231.547H146.667V231.413H146.533V231.28H146.4V231.147H146.267V230.88H146.133V230.747H146V230.613H145.867V230.48H145.733V230.213H145.6V230.08H145.467V229.947H145.333V229.68H145.2V229.547H145.067V229.413H144.933V229.147H144.8V229.013H144.667V228.88H144.533V228.613H144.4V228.48H144.267V228.347H144.133V228.08H144V227.947H143.867V227.813H143.733V227.547H143.6V227.413H143.467V227.28H143.333V227.013H143.2V226.88H143.067V226.747H142.933V226.48H142.8V226.347H142.667V226.08H142.533V225.947H142.4V225.813H142.267V225.547H142.133V225.413H142V225.147H141.867V225.013H141.733V224.747H141.6V224.613H141.467V224.347H141.333V224.213H141.2V223.947H141.067V223.813H140.933V223.547H140.8V223.413H140.667V223.28H140.533V223.013H140.4V222.88H140.267V222.613H140.133V222.48H140V222.213H139.867V221.947H139.733V221.813H139.6V221.547H139.467V221.413H139.333V221.147H139.2V220.88H139.067V220.747H138.933V220.48H138.8V220.213H138.667V220.08H138.533V219.813H138.4V219.68H138.267V219.413H138.133V219.147H138V219.013H137.867V218.747H137.733V218.613H137.6V218.347H137.467V218.08H137.333V217.813H137.2V217.547H137.067V217.413H136.933V217.147H136.8V216.88H136.667V216.613H136.533V216.347H136.4V216.213H136.267V215.947H136.133V215.68H136V215.413H135.867V215.28H135.733V215.013H135.6V214.747H135.467V214.48H135.333V214.213H135.2V213.947H135.067V213.68H134.933V213.413H134.8V213.147H134.667V212.88H134.533V212.613H134.4V212.347H134.267V212.08H134.133V211.813H134V211.547H133.867V211.28H133.733V211.013H133.6V210.747H133.467V210.48H133.333V210.213H133.2V209.947H133.067V209.68H132.933V209.28H132.8V209.013H132.667V208.747H132.533V208.48H132.4V208.08H132.267V207.813H132.133V207.547H132V207.28H131.867V206.88H131.733V206.613H131.6V206.347H131.467V205.947H131.333V205.68H131.2V205.28H131.067V205.013H130.933V204.613H130.8V204.347H130.667V203.947H130.533V203.68H130.4V203.28H130.267V203.013H130.133V202.613H130V202.347H129.867V201.947H129.733V201.547H129.6V201.147H129.467V200.747H129.333V200.347H129.2V199.947H129.067V199.547H128.933V199.147H128.8V198.747H128.667V198.347H128.533V197.947H128.4V197.547H128.267V197.147H128.133V196.613H128V196.213H127.867V195.68H127.733V195.28H127.6V194.747H127.467V194.347H127.333V193.813H127.2V193.28H127.067V192.747H126.933V192.213H126.8V191.68H126.667V191.147H126.533V190.613H126.4V189.947H126.267V189.413H126.133V188.747H126V187.947H125.867V187.28H125.733V186.613H125.6V185.947H125.467V185.147H125.333V184.213H125.2V183.28H125.067V182.347H124.933V181.413H124.8V180.08H124.667V178.613H124.533V177.147H124.4V174.08H124.267V168.347H124.4V166.08H124.533V164.08H124.667V163.013H124.8V161.813H124.933V160.613H125.067V159.68H125.2V158.88H125.333V158.08H125.467V157.28H125.6V156.48H125.733V155.947H125.867V155.28H126V154.747H126.133V154.08H126.267V153.547H126.4V152.88H126.533V152.347H126.667V151.813H126.8V151.413H126.933V150.88H127.067V150.48H127.2V149.947H127.333V149.547H127.467V149.013H127.6V148.613H127.733V148.08H127.867V147.813H128V147.413H128.133V147.013H128.267V146.613H128.4V146.213H128.533V145.813H128.667V145.413H128.8V145.013H128.933V144.613H129.067V144.347H129.2V143.947H129.333V143.68H129.467V143.28H129.6V143.013H129.733V142.747H129.867V142.347H130V142.08H130.133V141.68H130.267V141.413H130.4V141.013H130.533V140.747H130.667V140.48H130.8V140.213H130.933V139.947H131.067V139.68H131.2V139.413H131.333V139.147H131.467V138.747H131.6V138.48H131.733V138.213H131.867V137.947H132V137.68H132.133V137.413H132.267V137.147H132.4V136.88H132.533V136.613H132.667V136.48H132.8V136.213H132.933V135.947H133.067V135.68H133.2V135.413H133.333V135.28H133.467V135.013H133.6V134.747H133.733V134.48H133.867V134.213H134V133.947H134.133V133.813H134.267V133.547H134.4V133.28H134.533V133.147H134.667V132.88H134.8V132.747H134.933V132.48H135.067V132.213H135.2V132.08H135.333V131.813H135.467V131.68H135.6V131.413H135.733V131.28H135.867V131.013H136V130.747H136.133V130.613H136.267V130.347H136.4V130.213H136.533V129.947H136.667V129.813H136.8V129.547H136.933V129.413H137.067V129.28H137.2V129.013H137.333V128.88H137.467V128.747H137.6V128.48H137.733V128.347H137.867V128.08H138V127.947H138.133V127.813H138.267V127.547H138.4V127.413H138.533V127.147H138.667V127.013H138.8V126.88H138.933V126.613H139.067V126.48H139.2V126.347H139.333V126.213H139.467V125.947H139.6V125.813H139.733V125.68H139.867V125.547H140V125.413H140.133V125.147H140.267V125.013H140.4V124.88H140.533V124.747H140.667V124.48H140.8V124.347H140.933V124.213H141.067V124.08H141.2V123.947H141.333V123.68H141.467V123.547H141.6V123.413H141.733V123.28H141.867V123.147H142V123.013H142.133V122.88H142.267V122.747H142.4V122.48H142.533V122.347H142.667V122.213H142.8V122.08H142.933V121.947H143.067V121.813H143.2V121.68H143.333V121.547H143.467V121.413H143.6V121.28H143.733V121.147H143.867V121.013H144V120.747H144.133V120.613H144.267V120.48H144.4V120.347H144.533V120.213H144.667V120.08H144.8V119.947H144.933V119.813H145.067V119.68H145.2V119.547H145.333V119.413H145.467V119.28H145.6V119.147H145.733V119.013H145.867V118.88H146V118.747H146.133V118.613H146.267V118.48H146.4V118.347H146.667V118.213H146.8V118.08H146.933V117.947H147.067V117.813H147.2V117.68H147.333V117.547H147.467V117.413H147.6V117.28H147.733V117.147H147.867V117.013H148V116.88H148.267V116.747H148.4V116.613H148.533V116.48H148.667V116.347H148.8V116.213H149.067V116.08H149.2V115.947H149.333V115.813H149.467V115.68H149.6V115.547H149.867V115.413H150V115.28H150.133V115.147H150.267V115.013H150.533V114.88H150.667V114.747H150.933V114.613H151.2V114.48H151.467V114.347H151.6V114.213H151.867V114.08H152.133V113.947H152.4V113.813H152.533V113.68H152.8V113.547H153.067V113.413H153.333V113.28H153.467V113.147H153.733V113.013H154V112.88H154.267V112.747H154.4V112.613H154.667V112.48H154.933V112.347H155.2V112.213H155.467V112.08H155.733V111.947H156V111.813H156.267V111.68H156.533V111.547H156.8V111.413H157.067V111.28H157.333V111.147H157.6V111.013H157.867V110.88H158.133V110.747H158.4V110.613H158.533V110.48H158.8V110.347H159.2V110.213H159.467V110.08H159.733V109.947H160V109.813H160.267V109.68H160.667V109.547H160.933V109.413H161.2V109.28H161.467V109.147H161.867V109.013H162.133V108.88H162.4V108.747H162.667V108.613H162.933V108.48H163.333V108.347H163.6V108.213H164V108.08H164.267V107.947H164.667V107.813H164.933V107.68H165.333V107.547H165.6V107.413H166V107.28H166.267V107.147H166.667V107.013H166.933V106.88H167.333V106.747H167.733V106.613H168V106.48H168.4V106.347H168.8V106.213H169.2V106.08H169.6V105.947H170V105.813H170.4V105.68H170.8V105.547H171.2V105.413H171.6V105.28H172V105.147H172.4V105.013H172.8V104.88H173.2V104.747H173.733V104.613H174.133V104.48H174.667V104.347H175.067V104.213H175.6V104.08H176V103.947H176.533V103.813H176.933V103.68H177.467V103.547H178V103.413H178.533V103.28H179.2V103.147H179.733V103.013H180.267V102.88H180.933V102.747H181.467V102.613H182V102.48H182.667V102.347H183.467V102.213H184.267V102.08H184.933V101.947H185.733V101.813H186.4V101.68H187.2V101.547H188.133V101.413H189.2V101.28H190.267V101.147H191.333V101.013H192.4V100.88H194V100.747H195.733V100.613H197.6V100.48H201.467V100.347H204.4V100.48H208.267V100.613H210V100.747H211.733V100.88H213.467V101.013H214.533V101.147H215.6V101.28H216.667V101.413H217.6V101.547H218.667V101.68H219.333V101.813H220.133V101.947H220.933V102.08H221.6V102.213H222.4V102.347H223.067V102.48H223.733V102.613H224.4V102.747H224.933V102.88H225.467V103.013H226.133V103.147H226.667V103.28H227.2V103.413H227.867V103.547H228.4V103.68H228.8V103.813H229.333V103.947H229.733V104.08H230.267V104.213H230.667V104.347H231.2V104.48H231.6V104.613H232.133V104.747H232.667V104.88H233.067V105.013H233.467V105.147H233.867V105.28H234.267V105.413H234.667V105.547H235.067V105.68H235.467V105.813H235.867V105.947H236.267V106.08H236.667V106.213H237.067V106.347H237.467V106.48H237.867V106.613H238.133V106.747H238.533V106.88H238.8V107.013H239.2V107.147H239.467V107.28H239.867V107.413H240.133V107.547H240.533V107.68H240.8V107.813H241.2V107.947H241.6V108.08H241.867V108.213H242.267V108.347H242.533V108.48H242.8V108.613H243.2V108.747H243.467V108.88H243.733V109.013H244V109.147H244.267V109.28H244.667V109.413H244.933V109.547H245.2V109.68H245.467V109.813H245.733V109.947H246.133V110.08H246.4V110.213H246.667V110.347H246.933V110.48H247.2V110.613H247.467V110.747H247.733V110.88H248V111.013H248.267V111.147H248.533V111.28H248.8V111.413H249.067V111.547H249.333V111.68H249.6V111.813H249.867V111.947H250.133V112.08H250.4V112.213H250.667V112.347H250.933V112.48H251.2V112.613H251.333V112.747H251.6V112.88H251.867V113.013H252.133V113.147H252.267V113.28H252.533V113.413H252.8V113.547H253.067V113.68H253.2V113.813H253.467V113.947H253.733V114.08H254V114.213H254.133V114.347H254.4V114.48H254.667V114.613H254.933V114.747H255.067V114.88H255.333V115.013H255.6V115.147H255.733V115.28H256V115.413H256.133V115.547H256.4V115.68H256.667V115.813H256.8V115.947H257.067V116.08H257.2V116.213H257.467V116.347H257.6V116.48H257.867V116.613H258V116.747H258.267V116.88H258.533V117.013H258.667V117.147H258.933V117.28H259.067V117.413H259.333V117.547H259.467V117.68H259.733V117.813H259.867V117.947H260.133V118.08H260.267V118.213H260.533V118.347H260.667V118.48H260.8V118.613H261.067V118.747H261.2V118.88H261.467V119.013H261.6V119.147H261.733V119.28H262V119.413H262.133V119.547H262.4V119.68H262.533V119.813H262.667V119.947H262.933V120.08H263.067V120.213H263.333V120.347H263.467V120.48H263.6V120.613H263.867V120.747H264V120.88H264.133V121.013H264.4V121.147H264.533V121.28H264.667V121.413H264.8V121.547H265.067V121.68H265.2V121.813H265.333V121.947H265.6V122.08H265.733V122.213H265.867V122.347H266V122.48H266.267V122.613H266.4V122.747H266.533V122.88H266.667V123.013H266.933V123.147H267.067V123.28H267.2V123.413H267.467V123.547H267.6V123.68H267.733V123.813H267.867V123.947H268V124.08H268.133V124.213H268.4V124.347H268.533V124.48H268.667V124.613H268.8V124.747H268.933V124.88H269.067V125.013H269.2V125.147H269.467V125.28H269.6V125.413H269.733V125.547H269.867V125.68H270V125.813H270.133V125.947H270.4V126.08H270.533V126.213H270.667V126.347H270.8V126.48H270.933V126.613H271.067V126.747H271.2V126.88H271.333V127.013H271.6V127.147H271.733V127.28H271.867V127.413H272V127.547H272.133V127.68H272.267V127.813H272.4V127.947H272.533V128.08H272.667V128.213H272.8V128.347H272.933V128.48H273.067V128.613H273.2V128.747H273.333V128.88H273.467V129.013H273.6V129.147H273.733V129.28H273.867V129.413H274V129.547H274.133V129.68H274.4V129.813H274.533V129.947H274.667V130.08H274.8V130.213H274.933V130.347H275.067V130.48H275.2V130.747H275.333V130.88H275.467V131.013H275.6V131.147H275.733V131.28H275.867V131.413H276V131.547H276.133V131.68H276.267V131.813H276.4V131.947H276.533V132.08H276.667V132.213H276.8V132.347H276.933V132.48H277.067V132.613H277.2V132.747H277.333V132.88H277.467V133.013H277.6V133.147H277.733V133.28H277.867V133.547H278V133.68H278.133V133.813H278.267V133.947H278.4V134.08H278.533V134.213H278.667V134.347H278.8V134.48H278.933V134.747H279.067V134.88H279.2V135.013H279.333V135.147H279.467V135.28H279.6V135.413H279.733V135.68H279.867V135.813H280V135.947H280.133V136.08H280.267V136.213H280.4V136.347H280.533V136.48H280.667V136.747H280.8V136.88H280.933V137.013H281.067V137.147H281.2V137.28H281.333V137.413H281.467V137.68H281.6V137.813H281.733V137.947H281.867V138.213H282V138.347H282.133V138.48H282.267V138.613H282.4V138.88H282.533V139.013H282.667V139.147H282.8V139.28H282.933V139.547H283.067V139.68H283.2V139.813H283.333V140.08H283.467V140.213H283.6V140.347H283.733V140.48H283.867V140.747H284V140.88H284.133V141.013H284.267V141.28H284.4V141.413H284.533V141.547H284.667V141.813H284.8V141.947H284.933V142.213H285.067V142.347H285.2V142.48H285.333V142.747H285.467V142.88H285.6V143.147H285.733V143.28H285.867V143.413H286V143.68H286.133V143.813H286.267V144.08H286.4V144.213H286.533V144.347H286.667V144.613H286.8V144.747H286.933V145.013H287.067V145.147H287.2V145.413H287.333V145.547H287.467V145.813H287.6V145.947H287.733V146.213H287.867V146.347H288V146.613H288.133V146.88H288.267V147.013H288.4V147.28H288.533V147.413H288.667V147.68H288.8V147.813H288.933V148.08H289.067V148.213H289.2V148.48H289.333V148.747H289.467V148.88H289.6V149.147H289.733V149.28H289.867V149.547H290V149.813H290.133V149.947H290.267V150.213H290.4V150.48H290.533V150.747H290.667V150.88H290.8V151.147H290.933V151.413H291.067V151.68H291.2V151.813H291.333V152.08H291.467V152.347H291.6V152.613H291.733V152.747H291.867V153.013H292V153.28H292.133V153.547H292.267V153.813H292.4V153.947H292.533V154.213H292.667V154.48H292.8V154.747H292.933V155.013H293.067V155.28H293.2V155.547H293.333V155.813H293.467V156.08H293.6V156.347H293.733V156.613H293.867V156.88H294V157.147H294.133V157.413H294.267V157.68H294.4V157.947H294.533V158.213H294.667V158.48H294.8V158.747H294.933V159.147H295.067V159.413H295.2V159.68H295.333V159.947H295.467V160.213H295.6V160.613H295.733V160.88H295.867V161.147H296V161.413H296.133V161.813H296.267V162.08H296.4V162.347H296.533V162.613H296.667V163.013H296.8V163.413H296.933V163.68H297.067V164.08H297.2V164.347H297.333V164.747H297.467V165.013H297.6V165.413H297.733V165.68H297.867V166.08H298V166.347H298.133V166.747H298.267V167.013H298.4V167.413H298.533V167.813H298.667V168.213H298.8V168.613H298.933V169.013H299.067V169.413H299.2V169.813H299.333V170.213H299.467V170.613H299.6V171.013H299.733V171.413H299.867V171.813H300V172.347H300.133V172.747H300.267V173.28H300.4V173.68H300.533V174.213H300.667V174.613H300.8V175.147H300.933V175.547H301.067V176.08H301.2V176.48H301.333V177.147H301.467V177.68H301.6V178.213H301.733V178.88H301.867V179.413H302V179.947H302.133V180.613H302.267V181.147H302.4V181.813H302.533V182.48H302.667V183.28H302.8V184.08H302.933V184.747H303.067V185.547H303.2V186.347H303.333V187.28H303.467V188.347H303.6V189.413H303.733V190.347H303.867V191.413H304V193.147H304.133V194.88H304.267V196.747H304.4V207.28H304.267V209.013H304.133V210.747H304V212.48H303.867V213.547H303.733V214.613H303.6V215.547H303.467V216.613H303.333V217.68H303.2V218.347H303.067V219.147H302.933V219.947H302.8V220.613H302.667V221.413H302.533V222.08H302.4V222.747H302.267V223.413H302.133V223.947H302V224.48H301.867V225.147H301.733V225.68H301.6V226.213H301.467V226.88H301.333V227.413H301.2V227.813H301.067V228.347H300.933V228.747H300.8V229.28H300.667V229.813H300.533V230.213H300.4V230.747H300.267V231.147H300.133V231.68H300V232.08H299.867V232.48H299.733V232.88H299.6V233.28H299.467V233.68H299.333V234.08H299.2V234.48H299.067V234.88H298.933V235.28H298.8V235.68H298.667V236.08H298.533V236.48H298.4V236.88H298.267V237.147H298.133V237.547H298V237.813H297.867V238.213H297.733V238.48H297.6V238.88H297.467V239.28H297.333V239.547H297.2V239.947H297.067V240.213H296.933V240.613H296.8V240.88H296.667V241.28H296.533V241.547H296.4V241.813H296.267V242.213H296.133V242.48H296V242.747H295.867V243.013H295.733V243.28H295.6V243.413H295.467V243.547H295.333V243.813H295.2V243.947H295.067V244.213H294.933V244.347H294.8V244.48H294.667V244.747H294.533V244.88H294.4V245.013H294.267V245.147H294.133V245.28H294V245.547H293.867V245.68H293.733V245.813H293.6V245.947H293.467V246.213H293.333V246.347H293.2V246.48H293.067V246.613H292.933V246.88H292.8V247.013H292.667V247.147H292.533V247.28H292.4V247.413H292.267V247.68H292.133V247.813H292V247.947H291.867V248.08H291.733V248.213H291.6V248.347H291.467V248.48H291.333V248.613H291.2V248.747H291.067V248.88H290.933V249.147H290.8V249.28H290.667V249.413H290.533V249.547H290.4V249.68H290.267V249.813H290.133V249.947H290V250.08H289.867V250.213H289.733V250.347H289.6V250.48H289.467V250.747H289.333V250.88H289.2V251.013H289.067V251.147H288.933V251.28H288.8V251.413H288.533V251.547H288.4V251.68H288.267V251.813H288.133V251.947H288V252.08H287.867V252.213H287.733V252.347H287.6V252.48H287.467V252.613H287.333V252.747H287.2V252.88H287.067V253.013H286.933V253.147H286.8V253.28H286.667V253.413H286.533V253.547H286.4V253.68H286.267V253.813H286.133V253.947H286V254.08H285.733V254.213H285.6V254.347H285.467V254.48H285.333V254.613H285.2V254.747H285.067V254.88H284.933V255.013H284.667V255.147H284.533V255.28H284.4V255.413H284.267V255.547H284.133V255.68H283.867V255.813H283.733V255.947H283.6V256.08H283.467V256.213H283.333V256.347H283.067V256.48H282.933V256.613H282.8V256.747H282.667V256.88H282.4V257.013H282.267V257.147H282.133V257.28H281.867V257.413H281.733V257.547H281.6V257.68H281.333V257.813H281.2V257.947H281.067V258.08H280.8V258.213H280.667V258.347H280.533V258.48H280.267V258.613H280.133V258.747H280V258.88H279.733V259.013H279.6V259.147H279.467V259.28H279.2V259.413H279.067V259.547H278.8V259.68H278.667V259.813H278.4V259.947H278.267V260.08H278V260.213H277.867V260.347H277.6V260.48H277.467V260.613H277.2V260.747H277.067V260.88H276.8V261.013H276.667V261.147H276.4V261.28H276.267V261.413H276V261.547H275.733V261.68H275.6V261.813H275.333V261.947H275.067V262.08H274.933V262.213H274.667V262.347H274.4V262.48H274.267V262.613H274V262.747H273.733V262.88H273.6V263.013H273.333V263.147H273.067V263.28H272.933V263.413H272.667V263.547H272.4V263.68H272.133V263.813H271.867V263.947H271.6V264.08H271.333V264.213H271.067V264.347H270.8V264.48H270.533V264.613H270.4V264.747H270.133V264.88H269.867V265.013H269.6V265.147H269.333V265.28H269.067V265.413H268.8V265.547H268.533V265.68H268.133V265.813H267.867V265.947H267.6V266.08H267.333V266.213H267.067V266.347H266.667V266.48H266.4V266.613H266.133V266.747H265.867V266.88H265.467V267.013H265.2V267.147H264.933V267.28H264.533V267.413H264.267V267.547H263.867V267.68H263.6V267.813H263.2V267.947H262.8V268.08H262.533V268.213H262.133V268.347H261.867V268.48H261.467V268.613H261.067V268.747H260.8V268.88H260.267V269.013H259.867V269.147H259.467V269.28H259.067V269.413H258.667V269.547H258.267V269.68H257.867V269.813H257.467V269.947H257.067V270.08H256.533V270.213H256.133V270.347H255.6V270.48H255.067V270.613H254.533V270.747H254.133V270.88H253.6V271.013H253.067V271.147H252.533V271.28H251.867V271.413H251.333V271.547H250.667V271.68H250V271.813H249.467V271.947H248.8V272.08H248V272.213H247.2V272.347H246.4V272.48H245.6V272.613H244.8V272.747H243.733V272.88H242.533V273.013H241.333V273.147H240.133V273.28H238.133V273.413H236.133V273.547" fill="url(#paint1_radial_43839_50)"/>
<path d="M248.533 217.947V217.813H245.333V217.68H243.2V217.547H241.867V217.413H240.533V217.28H239.333V217.147H238.4V217.013H237.467V216.88H236.4V216.747H235.6V216.613H234.8V216.48H234.133V216.347H233.333V216.213H232.533V216.08H231.867V215.947H231.2V215.813H230.667V215.68H230V215.547H229.333V215.413H228.667V215.28H228.133V215.147H227.6V215.013H227.067V214.88H226.533V214.747H226V214.613H225.467V214.48H224.933V214.347H224.533V214.213H224V214.08H223.467V213.947H223.067V213.813H222.533V213.68H222.133V213.547H221.6V213.413H221.2V213.28H220.8V213.147H220.4V213.013H219.867V212.88H219.467V212.747H219.067V212.613H218.667V212.48H218.267V212.347H217.867V212.213H217.467V212.08H217.067V211.947H216.667V211.813H216.267V211.68H216V211.547H215.6V211.413H215.2V211.28H214.8V211.147H214.4V211.013H214V210.88H213.733V210.747H213.333V210.613H213.067V210.48H212.667V210.347H212.4V210.213H212V210.08H211.6V209.947H211.333V209.813H210.933V209.68H210.667V209.547H210.267V209.413H210V209.28H209.733V209.147H209.333V209.013H209.067V208.88H208.8V208.747H208.4V208.613H208.133V208.48H207.867V208.347H207.467V208.213H207.2V208.08H206.933V207.947H206.533V207.813H206.267V207.68H206V207.547H205.733V207.413H205.467V207.28H205.2V207.147H204.933V207.013H204.533V206.88H204.267V206.747H204V206.613H203.733V206.48H203.467V206.347H203.2V206.213H202.933V206.08H202.667V205.947H202.4V205.813H202.133V205.68H201.867V205.547H201.6V205.413H201.333V205.28H201.067V205.147H200.8V205.013H200.533V204.88H200.267V204.747H200V204.613H199.733V204.48H199.467V204.347H199.2V204.213H198.933V204.08H198.667V203.947H198.533V203.813H198.267V203.68H198V203.547H197.733V203.413H197.467V203.28H197.2V203.147H197.067V203.013H196.8V202.88H196.533V202.747H196.267V202.613H196V202.48H195.867V202.347H195.6V202.213H195.333V202.08H195.067V201.947H194.933V201.813H194.667V201.68H194.4V201.547H194.267V201.413H194V201.28H193.733V201.147H193.6V201.013H193.333V200.88H193.067V200.747H192.933V200.613H192.667V200.48H192.4V200.347H192.267V200.213H192V200.08H191.733V199.947H191.6V199.813H191.333V199.68H191.2V199.547H190.933V199.413H190.667V199.28H190.533V199.147H190.267V199.013H190.133V198.88H189.867V198.747H189.733V198.613H189.467V198.48H189.333V198.347H189.067V198.213H188.8V198.08H188.667V197.947H188.4V197.813H188.267V197.68H188V197.547H187.867V197.413H187.733V197.28H187.467V197.147H187.333V197.013H187.067V196.88H186.933V196.747H186.667V196.613H186.533V196.48H186.267V196.347H186.133V196.213H185.867V196.08H185.733V195.947H185.6V195.813H185.333V195.68H185.2V195.547H184.933V195.413H184.8V195.28H184.667V195.147H184.4V195.013H184.267V194.88H184V194.747H183.867V194.613H183.733V194.48H183.467V194.347H183.333V194.213H183.2V194.08H182.933V193.947H182.8V193.813H182.667V193.68H182.4V193.547H182.267V193.413H182.133V193.28H181.867V193.147H181.733V193.013H181.6V192.88H181.333V192.747H181.2V192.613H181.067V192.48H180.933V192.347H180.667V192.213H180.533V192.08H180.4V191.947H180.267V191.813H180V191.68H179.867V191.547H179.733V191.413H179.6V191.28H179.333V191.147H179.2V191.013H179.067V190.88H178.8V190.747H178.667V190.613H178.533V190.48H178.4V190.347H178.267V190.213H178.133V190.08H177.867V189.947H177.733V189.813H177.6V189.68H177.467V189.547H177.333V189.413H177.2V189.28H176.933V189.147H176.8V189.013H176.667V188.88H176.533V188.747H176.4V188.613H176.133V188.48H176V188.347H175.867V188.213H175.733V188.08H175.6V187.947H175.467V187.813H175.333V187.68H175.2V187.547H175.067V187.413H174.8V187.28H174.667V187.147H174.533V187.013H174.4V186.88H174.267V186.747H174.133V186.613H174V186.48H173.867V186.347H173.733V186.213H173.6V186.08H173.333V185.947H173.2V185.813H173.067V185.68H172.933V185.547H172.8V185.413H172.667V185.28H172.533V185.147H172.4V185.013H172.267V184.88H172.133V184.747H172V184.613H171.867V184.48H171.733V184.347H171.6V184.213H171.467V184.08H171.333V183.947H171.2V183.813H171.067V183.68H170.933V183.547H170.8V183.413H170.667V183.28H170.533V183.147H170.4V183.013H170.267V182.88H170.133V182.747H170V182.613H169.867V182.48H169.733V182.347H169.6V182.213H169.467V182.08H169.333V181.947H169.2V181.813H169.067V181.68H168.933V181.547H168.8V181.413H168.667V181.28H168.533V181.147H168.4V180.88H168.267V180.747H168.133V180.613H168V180.48H167.867V180.347H167.733V180.213H167.6V180.08H167.467V179.947H167.333V179.813H167.2V179.68H167.067V179.413H166.933V179.28H166.8V179.147H166.667V179.013H166.533V178.88H166.4V178.747H166.267V178.613H166.133V178.48H166V178.213H165.867V178.08H165.733V177.947H165.6V177.813H165.467V177.68H165.333V177.547H165.2V177.28H165.067V177.147H164.933V177.013H164.8V176.88H164.667V176.747H164.533V176.48H164.4V176.347H164.267V176.213H164.133V176.08H164V175.813H163.867V175.68H163.733V175.547H163.6V175.413H163.467V175.28H163.333V175.013H163.2V174.88H163.067V174.747H162.933V174.48H162.8V174.347H162.667V174.213H162.533V173.947H162.4V173.813H162.267V173.68H162.133V173.547H162V173.28H161.867V173.147H161.733V173.013H161.6V172.747H161.467V172.613H161.333V172.48H161.2V172.213H161.067V172.08H160.933V171.813H160.8V171.68H160.667V171.547H160.533V171.28H160.4V171.147H160.267V170.88H160.133V170.747H160V170.48H159.867V170.347H159.733V170.213H159.6V169.947H159.467V169.813H159.333V169.547H159.2V169.413H159.067V169.147H158.933V169.013H158.8V168.747H158.667V168.48H158.533V168.347H158.4V168.08H158.267V167.947H158.133V167.68H158V167.547H157.867V167.28H157.733V167.013H157.6V166.88H157.467V166.613H157.333V166.48H157.2V166.213H157.067V165.947H156.933V165.813H156.8V165.547H156.667V165.28H156.533V165.013H156.4V164.88H156.267V164.613H156.133V164.347H156V164.08H155.867V163.947H155.733V163.68H155.6V163.413H155.467V163.147H155.333V162.88H155.2V162.613H155.067V162.347H154.933V162.08H154.8V161.947H154.667V161.68H154.533V161.413H154.4V161.147H154.267V160.88H154.133V160.613H154V160.347H153.867V159.947H153.733V159.68H153.6V159.413H153.467V159.147H153.333V158.88H153.2V158.613H153.067V158.213H152.933V157.947H152.8V157.68H152.667V157.28H152.533V157.013H152.4V156.613H152.267V156.347H152.133V156.08H152V155.68H151.867V155.413H151.733V155.013H151.6V154.613H151.467V154.213H151.333V153.813H151.2V153.547H151.067V153.147H150.933V152.747H150.8V152.347H150.667V151.947H150.533V151.413H150.4V151.013H150.267V150.48H150.133V150.08H150V149.68H149.867V149.147H149.733V148.48H149.6V147.947H149.467V147.413H149.333V146.747H149.2V146.08H149.067V145.28H148.933V144.613H148.8V143.813H148.667V142.613H148.533V141.413H148.4V139.147H148.267V135.547H148.4V133.947H148.533V132.48H148.667V131.68H148.8V130.88H148.933V130.08H149.067V129.413H149.2V128.88H149.333V128.347H149.467V127.813H149.6V127.28H149.733V126.88H149.867V126.48H150V126.08H150.133V125.547H150.267V125.147H150.4V124.747H150.533V124.48H150.667V124.08H150.8V123.813H150.933V123.547H151.067V123.147H151.2V122.88H151.333V122.48H151.467V122.213H151.6V121.947H151.733V121.68H151.867V121.413H152V121.147H152.133V120.88H152.267V120.613H152.4V120.347H152.533V120.08H152.667V119.813H152.8V119.68H152.933V119.413H153.067V119.147H153.2V119.013H153.333V118.747H153.467V118.48H153.6V118.213H153.733V118.08H153.867V117.813H154V117.68H154.133V117.413H154.267V117.28H154.4V117.013H154.533V116.88H154.667V116.747H154.8V116.48H154.933V116.347H155.067V116.213H155.2V115.947H155.333V115.813H155.467V115.547H155.6V115.413H155.733V115.28H155.867V115.147H156V115.013H156.133V114.747H156.267V114.613H156.4V114.48H156.533V114.347H156.667V114.213H156.8V113.947H156.933V113.813H157.067V113.68H157.2V113.547H157.333V113.413H157.467V113.28H157.6V113.147H157.733V113.013H157.867V112.88H158V112.747H158.133V112.613H158.267V112.48H158.4V112.347H158.533V112.213H158.667V112.08H158.8V111.813H158.933V111.68H159.067V111.547H159.2V111.413H159.467V111.28H159.6V111.147H159.733V111.013H159.867V110.88H160V110.747H160.133V110.613H160.267V110.48H160.4V110.347H160.667V110.213H160.8V110.08H160.933V109.947H161.067V109.813H161.2V109.68H161.333V109.547H161.6V109.413H161.733V109.28H161.867V109.147H162.133V109.013H162.267V108.88H162.4V108.747H162.667V108.613H162.933V108.48H163.333V108.347H163.6V108.213H164V108.08H164.267V107.947H164.667V107.813H164.933V107.68H165.333V107.547H165.6V107.413H166V107.28H166.267V107.147H166.667V107.013H166.933V106.88H167.333V106.747H167.733V106.613H168V106.48H168.4V106.347H168.8V106.213H169.2V106.08H169.6V105.947H170V105.813H170.4V105.68H170.8V105.547H171.2V105.413H171.6V105.28H172V105.147H172.4V105.013H172.8V104.88H173.2V104.747H173.733V104.613H174.133V104.48H174.667V104.347H175.067V104.213H175.6V104.08H176V103.947H176.533V103.813H176.933V103.68H177.467V103.547H178V103.413H178.533V103.28H179.2V103.147H179.733V103.013H180.267V102.88H180.933V102.747H181.467V102.613H182V102.48H182.667V102.347H183.467V102.213H184.267V102.08H184.933V101.947H185.733V101.813H186.4V101.68H187.2V101.547H188.133V101.413H189.2V101.28H190.267V101.147H191.333V101.013H192.4V100.88H194V100.747H195.733V100.613H197.6V100.48H201.467V100.347H204.4V100.48H208.267V100.613H210V100.747H211.733V100.88H213.467V101.013H214.533V101.147H215.6V101.28H216.667V101.413H217.6V101.547H218.667V101.68H219.333V101.813H220.133V101.947H220.933V102.08H221.6V102.213H222.4V102.347H223.067V102.48H223.733V102.613H224.4V102.747H224.933V102.88H225.467V103.013H226.133V103.147H226.667V103.28H227.2V103.413H227.867V103.547H228.4V103.68H228.8V103.813H229.333V103.947H229.733V104.08H230.267V104.213H230.667V104.347H231.2V104.48H231.6V104.613H232.133V104.747H232.667V104.88H233.067V105.013H233.467V105.147H233.867V105.28H234.267V105.413H234.667V105.547H235.067V105.68H235.467V105.813H235.867V105.947H236.267V106.08H236.667V106.213H237.067V106.347H237.467V106.48H237.867V106.613H238.133V106.747H238.533V106.88H238.8V107.013H239.2V107.147H239.467V107.28H239.867V107.413H240.133V107.547H240.533V107.68H240.8V107.813H241.2V107.947H241.467V108.08H241.733V108.213H242.133V108.347H242.4V108.48H242.667V108.613H242.933V108.747H243.2V108.88H243.6V109.013H243.867V109.147H244.133V109.28H244.4V109.413H244.667V109.547H244.933V109.68H245.2V109.813H245.6V109.947H245.867V110.08H246.133V110.213H246.4V110.347H246.667V110.48H246.933V110.613H247.2V110.747H247.467V110.88H247.733V111.013H248V111.147H248.267V111.28H248.4V111.413H248.667V111.547H248.933V111.68H249.2V111.813H249.467V111.947H249.733V112.08H250V112.213H250.267V112.347H250.533V112.48H250.8V112.613H251.067V112.747H251.2V112.88H251.467V113.013H251.733V113.147H252V113.28H252.267V113.413H252.533V113.547H252.667V113.68H252.933V113.813H253.2V113.947H253.467V114.08H253.6V114.213H253.867V114.347H254.133V114.48H254.4V114.613H254.533V114.747H254.8V114.88H255.067V115.013H255.2V115.147H255.467V115.28H255.733V115.413H255.867V115.547H256.133V115.68H256.4V115.813H256.533V115.947H256.8V116.08H256.933V116.213H257.2V116.347H257.467V116.48H257.6V116.613H257.867V116.747H258V116.88H258.267V117.013H258.4V117.147H258.667V117.28H258.933V117.413H259.067V117.547H259.333V117.68H259.467V117.813H259.733V117.947H259.867V118.08H260.133V118.213H260.4V118.347H260.533V118.48H260.8V118.613H260.933V118.747H261.067V118.88H261.333V119.013H261.467V119.147H261.733V119.28H261.867V119.413H262.133V119.547H262.267V119.68H262.533V119.813H262.667V119.947H262.933V120.08H263.067V120.213H263.2V120.347H263.467V120.48H263.6V120.613H263.867V120.747H264V120.88H264.133V121.013H264.4V121.147H264.533V121.28H264.667V121.413H264.8V121.547H265.067V121.68H265.2V121.813H265.333V121.947H265.6V122.08H265.733V122.213H265.867V122.347H266V122.48H266.267V122.613H266.4V122.747H266.533V122.88H266.667V123.013H266.933V123.147H267.067V123.28H267.2V123.413H267.467V123.547H267.6V123.68H267.733V123.813H267.867V123.947H268V124.08H268.133V124.213H268.4V124.347H268.533V124.48H268.667V124.613H268.8V124.747H268.933V124.88H269.067V125.013H269.2V125.147H269.467V125.28H269.6V125.413H269.733V125.547H269.867V125.68H270V125.813H270.133V125.947H270.4V126.08H270.533V126.213H270.667V126.347H270.8V126.48H270.933V126.613H271.067V126.747H271.2V126.88H271.333V127.013H271.6V127.147H271.733V127.28H271.867V127.413H272V127.547H272.133V127.68H272.267V127.813H272.4V127.947H272.533V128.08H272.667V128.213H272.8V128.347H272.933V128.48H273.067V128.613H273.2V128.747H273.333V128.88H273.467V129.013H273.6V129.147H273.733V129.28H273.867V129.413H274V129.547H274.133V129.68H274.4V129.813H274.533V129.947H274.667V130.08H274.8V130.213H274.933V130.347H275.067V130.48H275.2V130.747H275.333V130.88H275.467V131.013H275.6V131.147H275.733V131.28H275.867V131.413H276V131.547H276.133V131.68H276.267V131.813H276.4V131.947H276.533V132.08H276.667V132.213H276.8V132.347H276.933V132.48H277.067V132.613H277.2V132.747H277.333V132.88H277.467V133.013H277.6V133.147H277.733V133.28H277.867V133.547H278V133.68H278.133V133.813H278.267V133.947H278.4V134.08H278.533V134.213H278.667V134.347H278.8V134.48H278.933V134.747H279.067V134.88H279.2V135.013H279.333V135.147H279.467V135.28H279.6V135.413H279.733V135.68H279.867V135.813H280V135.947H280.133V136.08H280.267V136.213H280.4V136.347H280.533V136.48H280.667V136.747H280.8V136.88H280.933V137.013H281.067V137.147H281.2V137.28H281.333V137.413H281.467V137.68H281.6V137.813H281.733V137.947H281.867V138.213H282V138.347H282.133V138.48H282.267V138.613H282.4V138.88H282.533V139.013H282.667V139.147H282.8V139.28H282.933V139.547H283.067V139.68H283.2V139.813H283.333V140.08H283.467V140.213H283.6V140.347H283.733V140.48H283.867V140.747H284V140.88H284.133V141.013H284.267V141.28H284.4V141.413H284.533V141.547H284.667V141.813H284.8V141.947H284.933V142.213H285.067V142.347H285.2V142.48H285.333V142.747H285.467V142.88H285.6V143.147H285.733V143.28H285.867V143.413H286V143.68H286.133V143.813H286.267V144.08H286.4V144.213H286.533V144.347H286.667V144.613H286.8V144.747H286.933V145.013H287.067V145.147H287.2V145.413H287.333V145.547H287.467V145.813H287.6V145.947H287.733V146.213H287.867V146.347H288V146.613H288.133V146.88H288.267V147.013H288.4V147.28H288.533V147.413H288.667V147.68H288.8V147.813H288.933V148.08H289.067V148.213H289.2V148.48H289.333V148.747H289.467V148.88H289.6V149.147H289.733V149.28H289.867V149.547H290V149.813H290.133V149.947H290.267V150.213H290.4V150.48H290.533V150.747H290.667V150.88H290.8V151.147H290.933V151.413H291.067V151.68H291.2V151.813H291.333V152.08H291.467V152.347H291.6V152.613H291.733V152.747H291.867V153.013H292V153.28H292.133V153.547H292.267V153.813H292.4V153.947H292.533V154.213H292.667V154.48H292.8V154.747H292.933V155.013H293.067V155.28H293.2V155.547H293.333V155.813H293.467V156.08H293.6V156.347H293.733V156.613H293.867V156.88H294V157.147H294.133V157.413H294.267V157.68H294.4V157.947H294.533V158.213H294.667V158.48H294.8V158.747H294.933V159.147H295.067V159.413H295.2V159.68H295.333V159.947H295.467V160.213H295.6V160.613H295.733V160.88H295.867V161.147H296V161.413H296.133V161.813H296.267V162.08H296.4V162.347H296.533V162.613H296.667V163.013H296.8V163.413H296.933V163.68H297.067V164.08H297.2V164.347H297.333V164.747H297.467V165.013H297.6V165.413H297.733V165.68H297.867V166.08H298V166.347H298.133V166.747H298.267V167.013H298.4V167.413H298.533V167.813H298.667V168.213H298.8V168.613H298.933V169.013H299.067V169.413H299.2V169.813H299.333V170.213H299.467V170.613H299.6V171.013H299.733V171.413H299.867V171.813H300V172.347H300.133V172.747H300.267V173.28H300.4V174.347H300.533V175.813H300.667V181.547H300.533V183.013H300.4V184.213H300.267V185.013H300.133V185.813H300V186.48H299.867V187.147H299.733V187.68H299.6V188.213H299.467V188.747H299.333V189.147H299.2V189.68H299.067V190.08H298.933V190.48H298.8V190.88H298.667V191.28H298.533V191.68H298.4V191.947H298.267V192.347H298.133V192.613H298V193.013H297.867V193.28H297.733V193.547H297.6V193.947H297.467V194.213H297.333V194.48H297.2V194.747H297.067V195.013H296.933V195.28H296.8V195.547H296.667V195.813H296.533V196.08H296.4V196.347H296.267V196.48H296.133V196.747H296V197.013H295.867V197.28H295.733V197.413H295.6V197.68H295.467V197.947H295.333V198.08H295.2V198.347H295.067V198.48H294.933V198.747H294.8V198.88H294.667V199.147H294.533V199.28H294.4V199.547H294.267V199.68H294.133V199.813H294V200.08H293.867V200.213H293.733V200.347H293.6V200.613H293.467V200.747H293.333V200.88H293.2V201.147H293.067V201.28H292.933V201.413H292.8V201.547H292.667V201.68H292.533V201.813H292.4V202.08H292.267V202.213H292.133V202.347H292V202.48H291.867V202.613H291.733V202.88H291.6V203.013H291.467V203.147H291.333V203.28H291.2V203.413H291.067V203.547H290.933V203.68H290.8V203.813H290.667V203.947H290.533V204.08H290.4V204.213H290.267V204.347H290.133V204.48H290V204.613H289.867V204.747H289.733V204.88H289.6V205.013H289.467V205.147H289.333V205.28H289.2V205.413H288.933V205.547H288.8V205.68H288.667V205.813H288.533V205.947H288.4V206.08H288.267V206.213H288.133V206.347H288V206.48H287.733V206.613H287.6V206.747H287.467V206.88H287.333V207.013H287.067V207.147H286.933V207.28H286.8V207.413H286.533V207.547H286.4V207.68H286.267V207.813H286V207.947H285.867V208.08H285.733V208.213H285.6V208.347H285.333V208.48H285.2V208.613H284.933V208.747H284.8V208.88H284.533V209.013H284.4V209.147H284.133V209.28H284V209.413H283.733V209.547H283.6V209.68H283.333V209.813H283.067V209.947H282.933V210.08H282.667V210.213H282.4V210.347H282.133V210.48H282V210.613H281.733V210.747H281.467V210.88H281.333V211.013H281.067V211.147H280.8V211.28H280.533V211.413H280.267V211.547H280V211.68H279.733V211.813H279.467V211.947H279.2V212.08H278.933V212.213H278.667V212.347H278.4V212.48H278.133V212.613H277.867V212.747H277.467V212.88H277.2V213.013H276.8V213.147H276.533V213.28H276.267V213.413H275.867V213.547H275.6V213.68H275.2V213.813H274.933V213.947H274.533V214.08H274.133V214.213H273.733V214.347H273.333V214.48H273.067V214.613H272.667V214.747H272.267V214.88H271.733V215.013H271.333V215.147H270.933V215.28H270.4V215.413H270V215.547H269.467V215.68H268.933V215.813H268.4V215.947H267.867V216.08H267.333V216.213H266.8V216.347H266.133V216.48H265.333V216.613H264.667V216.747H264V216.88H263.2V217.013H262.267V217.147H261.333V217.28H260.4V217.413H259.2V217.547H257.867V217.68H256V217.813H253.067V217.947" fill="url(#paint2_radial_43839_50)"/>
<defs>
<linearGradient id="paint0_linear_43839_50" x1="208.627" y1="401.467" x2="203.81" y2="110.874" gradientUnits="userSpaceOnUse">
<stop stop-color="#002E6C"/>
<stop offset="1" stop-color="white"/>
</linearGradient>
<radialGradient id="paint1_radial_43839_50" cx="0" cy="0" r="1" gradientUnits="userSpaceOnUse" gradientTransform="translate(267.932 199.276) rotate(75.3302) scale(173.45 177.281)">
<stop stop-color="#002E6C"/>
<stop offset="0.0292892" stop-color="#002E6C"/>
<stop offset="0.82507" stop-color="#F5F9FD"/>
<stop offset="1" stop-color="#F5F9FD"/>
</radialGradient>
<radialGradient id="paint2_radial_43839_50" cx="0" cy="0" r="1" gradientUnits="userSpaceOnUse" gradientTransform="translate(365.92 160.913) rotate(-8.56592) scale(202.858 243.321)">
<stop stop-color="#002E6C"/>
<stop offset="0.0604415" stop-color="#002E6C"/>
<stop offset="0.842049" stop-color="#F5F9FD"/>
<stop offset="1" stop-color="#F5F9FD"/>
</radialGradient>
</defs>
</svg>
